<?xml version="1.0" standalone="no"?>
<!DOCTYPE svg PUBLIC "-//W3C//DTD SVG 20010904//EN"
 "http://www.w3.org/TR/2001/REC-SVG-20010904/DTD/svg10.dtd">
<svg version="1.0" xmlns="http://www.w3.org/2000/svg"
 width="260.000000pt" height="260.000000pt" viewBox="0 0 260.000000 260.000000"
 preserveAspectRatio="xMidYMid meet">
<metadata>
Created by potrace 1.14, written by Peter Selinger 2001-2017
</metadata>
<g transform="translate(0.000000,260.000000) scale(0.100000,-0.100000)"
fill="#000000" stroke="none">
<path d="M145 2526 c-40 -17 -84 -63 -101 -103 -12 -27 -14 -228 -14 -1135 0
-1088 0 -1102 20 -1144 12 -24 39 -54 62 -70 l41 -29 1156 0 1156 0 36 24 c20
14 47 41 60 60 l24 35 3 1100 c1 606 0 1116 -3 1134 -8 42 -59 100 -110 123
-38 18 -98 19 -1170 18 -915 0 -1136 -2 -1160 -13z m485 -1046 l0 -680 265 0
265 0 0 -130 0 -130 -265 0 c-146 0 -265 3 -265 8 0 4 111 6 247 5 241 -3 273
1 273 29 0 6 -7 4 -17 -3 -15 -13 -15 -12 -4 9 6 12 9 22 6 22 -3 0 0 10 6 22
12 22 11 22 -8 5 -16 -14 -20 -14 -20 -2 0 8 4 12 8 10 11 -8 18 22 8 32 -6 6
-4 14 6 23 17 14 20 30 4 30 -5 0 -7 -5 -3 -12 4 -7 3 -8 -5 -4 -6 4 -8 13 -4
19 14 23 11 37 -8 37 -13 0 -18 -4 -13 -12 4 -7 3 -8 -5 -4 -6 4 -9 11 -7 15
3 4 -29 6 -70 4 -49 -2 -73 0 -69 7 3 6 0 7 -9 4 -9 -3 -13 -11 -9 -17 4 -6 1
-7 -7 -2 -7 4 -15 2 -20 -5 -5 -8 -9 -7 -13 5 -5 10 -3 14 5 9 7 -4 8 -3 4 5
-8 12 -27 3 -49 -24 -5 -6 -7 -3 -4 7 5 13 0 16 -21 15 -15 -1 -30 -6 -34 -12
-4 -6 -8 -2 -8 8 0 10 -5 15 -10 12 -6 -4 -8 -11 -5 -16 3 -5 -1 -6 -9 -3 -9
3 -13 10 -10 15 3 5 -2 6 -10 3 -9 -3 -14 -9 -12 -13 3 -4 -11 -5 -31 -3 -26
3 -32 7 -22 14 11 7 9 8 -4 4 -10 -3 -21 -6 -23 -6 -3 0 -2 -5 2 -11 3 -6 -8
-3 -25 6 -18 9 -29 20 -25 26 3 5 0 17 -7 25 -6 8 -9 17 -5 21 3 3 6 1 6 -5 0
-7 4 -12 8 -12 4 0 8 9 8 19 0 11 -3 18 -6 16 -3 -2 -5 16 -5 41 0 24 2 44 5
44 3 0 6 9 6 19 0 11 -4 18 -8 15 -4 -2 -4 11 -1 31 3 21 1 41 -7 50 -11 13
-10 14 6 9 18 -7 18 -7 1 13 -14 16 -15 23 -6 29 8 5 10 3 4 -6 -5 -8 -4 -11
2 -7 6 4 8 22 3 47 -4 22 -4 40 -1 40 4 0 7 9 7 19 0 11 -4 18 -8 15 -4 -2 -4
11 -1 31 3 21 1 41 -7 50 -11 13 -10 14 6 9 18 -7 18 -7 1 13 -14 16 -15 23
-6 29 8 5 10 3 4 -6 -5 -8 -4 -11 2 -7 6 4 8 22 3 47 -4 22 -4 40 -1 40 4 0 7
9 7 19 0 11 -4 18 -8 15 -4 -2 -4 11 -1 31 3 21 1 41 -7 50 -11 13 -10 14 6 9
18 -7 18 -7 1 13 -14 16 -15 23 -6 29 8 5 10 3 4 -6 -5 -8 -4 -11 2 -7 6 4 8
22 3 47 -4 22 -4 40 -1 40 4 0 7 9 7 19 0 11 -4 18 -8 15 -4 -2 -4 11 -1 31 3
21 1 41 -7 50 -7 9 -10 18 -6 22 3 3 6 1 6 -5 0 -7 4 -12 8 -12 4 0 8 9 8 19
0 11 -3 18 -6 16 -3 -2 -5 16 -5 41 0 24 2 44 5 44 3 0 6 9 6 19 0 11 -4 17
-8 15 -4 -3 -8 1 -8 10 0 8 6 16 13 19 9 3 9 8 -2 18 -12 12 -13 12 -6 -1 5
-8 4 -11 0 -7 -17 15 -14 36 3 29 15 -5 15 -4 3 12 -13 15 -13 19 0 26 12 8
12 11 0 22 -11 11 -13 11 -6 -1 5 -9 4 -12 -3 -7 -17 10 -15 26 3 26 9 0 12 6
9 15 -4 8 -11 12 -18 9 -6 -3 -3 1 7 9 24 20 22 22 -24 25 -31 2 -39 0 -33
-10 6 -10 4 -10 -7 -2 -8 6 -45 11 -84 10 l-70 -1 -1 -85 c0 -47 4 -93 9 -104
6 -13 6 -16 -2 -11 -13 8 -10 -53 4 -75 5 -9 4 -11 -4 -6 -9 6 -11 0 -7 -21 2
-15 5 -28 6 -28 1 0 3 -8 5 -18 2 -9 -1 -14 -6 -11 -11 7 -6 -56 6 -76 5 -8 4
-11 -3 -6 -7 4 -10 -4 -10 -23 1 -17 4 -28 8 -26 4 2 7 -2 7 -10 0 -8 -4 -12
-9 -9 -10 6 -6 -26 6 -45 6 -9 5 -12 -1 -8 -14 9 -13 -86 1 -95 7 -5 7 -8 0
-8 -12 0 -12 -59 0 -79 6 -10 5 -12 -2 -7 -17 10 -10 -27 8 -51 14 -16 13 -17
-2 -5 -15 12 -16 6 -14 -75 1 -48 5 -94 10 -102 6 -10 5 -12 -2 -7 -14 8 -12
-20 2 -43 6 -9 5 -12 -1 -8 -6 4 -10 -13 -10 -43 -1 -28 2 -50 6 -50 4 0 8 -7
8 -15 0 -8 -4 -12 -9 -9 -10 7 -5 -57 7 -76 5 -9 4 -11 -4 -6 -9 6 -11 0 -7
-21 2 -15 5 -28 6 -28 1 0 3 -8 5 -18 2 -9 -1 -14 -6 -11 -11 7 -6 -56 6 -76
5 -9 4 -11 -3 -6 -8 5 -12 -1 -12 -14 0 -17 4 -21 18 -16 15 5 15 4 2 -6 -17
-14 -21 -84 -6 -107 6 -10 5 -12 -2 -7 -7 4 -12 1 -12 -9 0 -10 5 -13 13 -9 9
6 9 5 -1 -8 -11 -13 1 -15 105 -17 64 -1 119 -3 121 -6 3 -3 -52 -5 -121 -5
l-127 0 0 809 0 810 130 0 130 1 0 -680z m1320 670 c0 -5 14 -10 30 -10 20 0
30 -5 30 -15 0 -8 9 -15 20 -15 11 0 20 -4 20 -10 0 -5 7 -10 16 -10 18 0 44
-23 44 -39 0 -6 7 -11 16 -11 21 0 44 -24 44 -47 0 -10 9 -25 20 -33 11 -8 20
-25 20 -37 0 -13 5 -23 10 -23 6 0 10 -11 10 -25 0 -14 5 -25 10 -25 6 0 10
-33 10 -80 0 -45 -4 -80 -10 -80 -5 0 -6 7 -3 17 5 12 3 14 -8 8 -12 -8 -12
-6 0 8 11 14 11 17 0 17 -11 0 -11 2 1 10 13 8 12 11 -5 25 -11 9 -14 14 -7
10 8 -4 11 0 9 12 -16 81 -20 93 -36 93 -14 0 -14 2 -1 10 13 8 13 10 -1 10
-10 0 -16 7 -15 18 0 9 -4 16 -11 15 -7 -2 -10 3 -7 11 7 17 -92 121 -99 103
-3 -7 -6 -5 -6 5 -1 9 -6 20 -13 24 -7 4 -8 3 -4 -4 5 -8 2 -10 -8 -6 -9 3
-14 9 -12 13 3 4 -4 13 -16 20 -11 7 -17 8 -13 2 9 -16 -11 -13 -29 4 -8 8
-22 12 -30 9 -9 -3 -16 -1 -16 6 0 6 -5 8 -10 5 -8 -5 -7 -12 2 -22 12 -15 11
-15 -9 -2 -15 9 -19 16 -10 21 20 12 0 20 -23 8 -14 -7 -26 -8 -33 -2 -7 6
-113 9 -251 8 l-239 -1 -3 -28 c-2 -17 1 -25 8 -21 6 4 6 -1 -1 -14 -14 -27
-14 -35 2 -26 10 6 10 4 0 -7 -14 -14 -18 -33 -5 -25 4 2 8 -4 9 -14 1 -11 -2
-22 -8 -25 -5 -4 -9 -11 -9 -16 0 -6 4 -8 9 -5 10 7 8 -29 -5 -58 -5 -14 -4
-17 5 -11 10 6 11 3 2 -13 -6 -11 -11 -23 -11 -27 0 -3 5 -3 11 1 8 5 8 1 0
-14 -14 -27 -14 -35 2 -26 10 6 10 4 0 -7 -14 -14 -18 -33 -5 -25 4 2 8 -4 9
-14 1 -11 -2 -22 -8 -25 -5 -4 -9 -11 -9 -16 0 -6 4 -8 8 -5 5 3 9 -1 9 -9 0
-8 -4 -12 -9 -9 -4 3 -8 0 -8 -5 0 -6 5 -11 12 -11 9 0 9 -3 0 -12 -15 -15
-16 -32 -1 -22 8 5 8 1 0 -14 -6 -11 -11 -23 -11 -27 0 -3 5 -3 11 1 8 5 8 1
0 -14 -14 -27 -14 -35 2 -26 10 6 10 4 0 -7 -14 -14 -18 -33 -5 -25 4 2 8 -4
9 -14 1 -11 -2 -22 -8 -25 -5 -4 -9 -14 -9 -23 0 -15 2 -15 10 -2 6 9 10 10
10 3 0 -6 -5 -15 -11 -19 -8 -4 -7 -9 2 -15 8 -5 9 -9 4 -9 -6 0 -10 -16 -11
-35 0 -19 3 -32 9 -28 5 3 4 -4 -2 -15 -6 -11 -11 -23 -11 -27 0 -3 5 -3 11 1
8 5 8 1 0 -14 -6 -11 -11 -23 -11 -27 0 -3 5 -3 11 1 8 5 8 1 0 -14 -14 -27
-14 -35 2 -26 10 6 10 4 0 -7 -14 -14 -18 -33 -5 -25 4 2 8 -4 9 -14 1 -11 -2
-22 -8 -25 -5 -4 -9 -11 -9 -16 0 -6 4 -8 8 -5 4 2 9 -5 9 -17 2 -17 0 -19 -7
-7 -7 11 -10 8 -10 -13 0 -16 4 -26 9 -23 10 7 9 -20 -2 -30 -11 -12 -8 -26 4
-18 8 5 8 1 0 -14 -14 -27 -14 -35 2 -26 10 6 10 4 0 -7 -14 -14 -18 -33 -5
-25 4 2 8 -4 9 -14 1 -11 -2 -22 -8 -25 -5 -4 -9 -11 -9 -16 0 -6 4 -8 8 -5 5
3 9 -1 9 -9 0 -8 -4 -12 -9 -9 -4 3 -8 0 -8 -5 0 -6 5 -11 12 -11 9 0 9 -3 0
-12 -15 -15 -16 -32 -1 -22 8 5 8 1 0 -14 -14 -26 -14 -35 0 -26 8 5 8 1 0
-14 -14 -27 -14 -35 2 -26 10 6 10 4 0 -7 -14 -14 -18 -33 -5 -25 4 2 8 -4 9
-14 1 -11 -2 -22 -8 -25 -5 -4 -9 -14 -9 -23 0 -15 2 -15 10 -2 5 8 10 10 10
5 0 -6 -5 -16 -12 -23 -9 -9 -9 -12 2 -12 11 0 11 -3 2 -12 -15 -15 -16 -32
-1 -22 8 5 8 1 0 -14 -14 -26 -14 -35 -1 -27 6 3 7 -1 4 -9 -5 -14 6 -16 81
-16 66 0 85 3 79 13 -6 9 -4 9 7 -1 16 -15 46 -16 55 0 4 6 3 8 -4 4 -11 -7
-11 12 1 32 5 7 3 12 -5 12 -9 0 -9 3 2 10 12 8 12 10 1 10 -11 0 -11 3 -1 15
10 12 10 15 -1 15 -12 0 -12 2 0 9 11 7 10 11 -5 21 -18 11 -18 11 0 6 17 -6
17 -5 5 11 -8 9 -9 14 -2 10 15 -9 13 54 -2 65 -6 5 -5 8 4 8 11 0 11 3 0 17
-10 11 -10 14 -1 9 6 -4 12 -2 12 3 0 6 -6 11 -12 11 -9 0 -8 4 2 10 13 9 13
10 0 10 -13 0 -13 1 0 10 12 8 12 10 1 10 -11 0 -11 3 -1 15 10 12 10 15 -1
16 -10 0 -11 2 -1 6 6 2 12 9 12 14 0 6 -4 8 -9 5 -11 -7 -9 13 2 32 5 7 3 12
-5 12 -9 0 -9 3 2 10 12 8 12 10 1 10 -11 0 -11 3 0 17 12 15 12 16 -1 8 -13
-8 -13 -7 -1 8 11 14 11 17 0 17 -11 0 -11 2 1 10 9 6 11 13 5 18 -14 10 -18
35 -5 27 7 -4 10 0 8 11 -3 18 6 19 135 19 75 0 137 4 137 9 0 4 7 3 15 -4 12
-10 16 -9 21 5 5 13 9 14 15 3 7 -10 9 -11 9 0 0 8 5 10 12 6 8 -5 9 -1 4 12
-6 15 -5 17 5 6 18 -17 32 -15 25 4 -5 14 -4 15 9 4 12 -10 15 -10 15 0 0 8 3
11 6 7 4 -3 14 2 23 11 9 10 12 12 7 5 -12 -18 -3 -16 22 6 12 10 18 21 15 25
-4 4 1 4 10 0 12 -4 17 -2 15 7 -2 8 3 13 10 12 11 -3 16 10 13 30 -1 5 3 6 8
2 16 -10 32 30 18 45 -10 12 -9 12 5 1 21 -16 41 -5 35 19 -3 14 -1 17 11 13
11 -5 13 -3 7 7 -5 8 -1 18 10 27 11 7 15 13 11 13 -5 0 -2 8 5 17 8 9 9 14 3
10 -6 -3 -11 0 -11 8 0 8 4 12 9 9 4 -3 9 0 9 5 3 20 5 26 18 50 8 14 9 21 2
17 -6 -4 -11 -2 -11 3 0 6 5 11 10 11 7 0 7 7 -1 21 -9 17 -8 20 2 14 9 -6 11
-3 6 8 -3 9 -2 19 3 22 6 4 10 -20 10 -59 0 -37 -4 -66 -10 -66 -5 0 -10 -16
-10 -35 0 -19 -4 -35 -10 -35 -5 0 -10 -10 -10 -23 0 -12 -9 -29 -20 -37 -11
-8 -20 -19 -20 -25 0 -6 -9 -17 -20 -25 -11 -8 -20 -18 -20 -23 0 -5 -13 -22
-30 -37 -16 -15 -30 -33 -30 -39 0 -6 -9 -11 -20 -11 -11 0 -20 -4 -20 -10 0
-5 -9 -10 -19 -10 -10 0 -21 -7 -25 -15 -3 -8 -17 -15 -31 -15 -14 0 -25 -4
-25 -10 0 -6 -65 -10 -175 -10 l-175 0 0 -285 0 -285 -130 0 -130 0 0 810 0
810 315 0 c203 0 315 -4 315 -10z m-163 -35 c0 -8 -4 -12 -9 -9 -5 3 -6 10 -3
15 9 13 12 11 12 -6z m-156 -191 c8 -4 9 -3 5 4 -9 15 -1 15 25 2 13 -8 19 -7
19 0 0 7 7 7 21 -1 17 -9 20 -8 14 2 -6 9 -3 10 8 6 10 -4 24 -10 32 -13 8 -3
15 -1 15 6 0 8 8 7 26 -5 15 -9 23 -12 20 -6 -4 6 -2 11 3 11 6 0 11 -5 11
-11 0 -5 4 -8 9 -4 5 3 13 1 16 -5 5 -7 11 -8 19 -1 8 7 12 4 13 -10 1 -13 -5
-19 -18 -19 -10 0 -19 5 -19 10 0 6 -52 10 -135 10 l-135 0 0 -275 0 -275 85
0 c50 0 85 4 85 10 0 6 18 10 40 10 29 0 40 4 40 15 0 9 9 15 25 15 26 0 75
39 75 60 0 5 5 10 10 10 6 0 10 11 10 25 0 14 5 25 10 25 6 0 10 9 10 20 0 11
5 20 10 20 6 0 10 32 10 75 0 43 -4 75 -10 75 -5 0 -10 15 -10 33 0 21 -7 38
-20 47 -11 8 -20 19 -20 24 0 5 -10 17 -22 27 -17 16 -19 23 -10 41 9 19 11
20 11 5 1 -10 6 -15 11 -12 6 3 10 0 10 -7 0 -8 9 -20 19 -28 11 -7 17 -18 14
-24 -4 -5 1 -7 12 -2 15 5 16 4 5 -9 -11 -14 -7 -19 12 -16 4 0 5 -6 1 -15 -3
-9 0 -20 8 -25 8 -5 9 -9 3 -9 -7 0 -9 -10 -6 -25 2 -14 9 -22 15 -18 6 4 7 1
1 -8 -11 -18 -12 -59 -1 -83 6 -13 6 -16 -2 -12 -7 4 -11 -1 -11 -13 0 -10 -3
-27 -7 -37 -5 -13 -3 -15 7 -9 9 5 11 4 6 -4 -4 -6 -11 -9 -16 -6 -4 3 -10 -4
-13 -15 -3 -11 -1 -20 4 -20 4 0 6 -7 3 -15 -4 -8 -10 -13 -14 -10 -4 3 -14
-3 -21 -12 -12 -14 -12 -16 1 -8 8 4 4 -3 -10 -16 -13 -13 -28 -24 -31 -24 -4
0 -11 -4 -16 -9 -4 -5 -3 -6 4 -2 6 3 14 2 18 -3 3 -6 -3 -8 -15 -6 -11 2 -25
-4 -32 -13 -7 -10 -20 -17 -28 -16 -8 0 -26 -6 -39 -14 -20 -12 -25 -12 -32
-1 -5 8 -9 9 -9 4 0 -16 -187 -12 -203 4 -9 9 -9 14 3 22 12 8 12 12 2 16 -10
4 -10 8 0 21 11 13 11 14 -2 7 -13 -8 -13 -7 -1 8 11 14 11 17 0 17 -9 0 -10
3 -3 8 13 9 13 53 -1 44 -5 -3 -4 2 4 11 11 14 11 17 0 17 -11 0 -11 3 1 11
12 8 12 12 2 16 -10 4 -10 8 0 21 11 13 11 14 -1 7 -11 -6 -12 -5 -5 6 13 21
14 39 2 39 -6 0 -5 6 2 15 10 12 10 15 -1 15 -11 0 -11 2 1 10 12 8 12 10 1
10 -11 0 -11 3 -1 15 10 12 10 15 -1 16 -10 0 -11 2 -1 6 6 2 12 9 12 14 0 6
-4 8 -9 5 -11 -7 -9 13 2 32 5 7 3 12 -5 12 -9 0 -9 3 2 10 12 8 12 10 1 10
-11 0 -11 3 -1 15 10 12 10 15 -1 16 -11 0 -11 2 -1 6 10 4 10 8 0 21 -10 12
-10 14 0 8 6 -4 12 -2 12 3 0 6 -6 11 -12 11 -9 0 -8 4 2 10 13 8 13 10 1 10
-11 0 -9 4 5 14 10 8 16 18 11 22 -4 4 -7 2 -7 -4 0 -7 -5 -12 -11 -12 -8 0
-8 4 0 14 11 13 50 14 72 0z m574 -92 c-3 -3 -11 0 -18 7 -9 10 -8 11 6 5 10
-3 15 -9 12 -12z m43 -187 c1 -19 -2 -35 -6 -35 -6 0 -7 21 -3 63 2 20 8 3 9
-28z m-38 -3 c0 -5 -7 -9 -15 -9 -8 0 -12 4 -9 9 3 4 9 8 15 8 5 0 9 -4 9 -8z
m-675 -122 c3 -6 -1 -7 -9 -4 -18 7 -21 14 -7 14 6 0 13 -4 16 -10z m-92 -35
c-3 -9 -8 -14 -10 -11 -3 3 -2 9 2 15 9 16 15 13 8 -4z m-1000 -120 c-3 -9 -8
-14 -10 -11 -3 3 -2 9 2 15 9 16 15 13 8 -4z m1447 -5 c0 -5 -2 -10 -4 -10 -3
0 -8 5 -11 10 -3 6 -1 10 4 10 6 0 11 -4 11 -10z m-1487 -95 c-3 -9 -8 -14
-10 -11 -3 3 -2 9 2 15 9 16 15 13 8 -4z m88 -2 c13 -16 12 -17 -3 -4 -10 7
-18 15 -18 17 0 8 8 3 21 -13z m1044 -223 c3 -6 -1 -7 -9 -4 -18 7 -21 14 -7
14 6 0 13 -4 16 -10z m-610 -440 c3 -5 1 -10 -4 -10 -6 0 -11 5 -11 10 0 6 2
10 4 10 3 0 8 -4 11 -10z"/>
</g>
</svg>
