<?xml version="1.0" standalone="no"?>
<!DOCTYPE svg PUBLIC "-//W3C//DTD SVG 20010904//EN"
 "http://www.w3.org/TR/2001/REC-SVG-20010904/DTD/svg10.dtd">
<svg version="1.0" xmlns="http://www.w3.org/2000/svg"
 width="633.000000pt" height="633.000000pt" viewBox="0 0 633.000000 633.000000"
 preserveAspectRatio="xMidYMid meet">
<metadata>
Created by potrace 1.14, written by Peter Selinger 2001-2017
</metadata>
<g transform="translate(0.000000,633.000000) scale(0.100000,-0.100000)"
fill="#000000" stroke="none">
<path d="M4685 6220 c3 -5 8 -10 11 -10 2 0 4 5 4 10 0 6 -5 10 -11 10 -5 0
-7 -4 -4 -10z"/>
<path d="M3230 6040 c0 -5 5 -10 10 -10 6 0 10 5 10 10 0 6 -4 10 -10 10 -5 0
-10 -4 -10 -10z"/>
<path d="M151 5949 c-24 -5 -45 -10 -47 -12 -8 -7 172 6 186 14 20 11 -80 10
-139 -2z"/>
<path d="M338 5953 c12 -2 32 -2 45 0 12 2 2 4 -23 4 -25 0 -35 -2 -22 -4z"/>
<path d="M498 5953 c12 -2 32 -2 45 0 12 2 2 4 -23 4 -25 0 -35 -2 -22 -4z"/>
<path d="M745 5950 c61 -3 97 -7 80 -10 -50 -9 1171 -4 1298 5 86 6 117 5 117
-3 0 -9 256 -12 993 -13 545 0 1012 -1 1037 -2 25 -1 147 0 271 1 189 2 228 4
233 17 4 13 -246 14 -2067 13 -1140 -1 -2022 -5 -1962 -8z"/>
<path d="M4880 5951 c0 -5 -10 -11 -22 -13 -13 -2 67 -1 177 1 260 5 688 4
938 -2 109 -3 208 -2 220 1 20 5 20 6 1 13 -28 11 -102 11 -109 -1 -3 -5 -14
-10 -23 -9 -14 0 -13 2 3 9 11 5 -237 9 -582 9 -366 1 -603 -3 -603 -8z"/>
<path d="M50 5910 c-14 -10 -21 -22 -17 -26 4 -4 16 3 27 16 11 13 20 18 20
11 0 -7 5 -9 10 -6 11 7 4 25 -8 25 -4 0 -18 -9 -32 -20z"/>
<path d="M111 5891 c-29 -10 -65 -28 -80 -38 l-26 -20 -3 -2692 -2 -2691 47
-31 c96 -61 -13 -57 1953 -66 2393 -11 3792 -10 4025 3 172 9 195 13 248 37
l57 26 0 2715 0 2715 -57 28 -58 28 -3025 2 c-2921 2 -3027 2 -3079 -16z
m5119 -601 c85 -23 121 -59 291 -291 206 -281 229 -325 229 -428 -1 -163 -8
-170 -645 -654 -116 -88 -265 -203 -600 -463 -141 -109 -418 -323 -841 -648
-71 -56 -206 -159 -298 -231 -371 -287 -840 -648 -1051 -810 -101 -77 -251
-193 -333 -257 -82 -65 -156 -120 -163 -123 -9 -3 -53 53 -131 168 -138 203
-238 350 -399 584 -66 94 -119 176 -119 182 0 11 183 161 219 181 22 11 34 -1
111 -110 58 -82 103 -130 125 -130 9 0 30 13 46 30 38 38 35 50 -46 160 -97
134 -108 151 -99 159 24 22 212 161 216 161 4 0 35 -39 70 -86 97 -134 127
-164 157 -164 14 0 31 4 37 8 15 9 34 47 34 65 0 8 -41 69 -90 134 -50 66 -90
124 -90 129 0 16 231 187 240 178 4 -5 46 -62 94 -126 93 -127 116 -143 162
-114 55 37 47 61 -65 209 -45 60 -81 113 -79 118 4 11 110 99 120 99 4 0 33
-32 65 -70 63 -77 93 -93 123 -65 36 33 34 51 -19 129 -28 41 -51 79 -51 85 0
5 17 23 39 40 l38 30 20 -22 c11 -12 55 -70 97 -129 43 -59 87 -110 98 -114
32 -10 67 5 83 36 18 36 14 50 -45 125 -25 33 -67 90 -93 126 l-47 66 23 21
c12 11 58 48 102 82 l80 61 33 -38 c19 -21 58 -72 87 -113 29 -41 62 -83 74
-94 44 -40 111 -11 111 48 0 23 -15 50 -56 101 -31 39 -74 96 -95 127 l-39 57
43 34 c85 68 140 107 152 107 7 0 38 -33 69 -74 71 -93 97 -105 136 -66 31 31
25 55 -35 140 -30 43 -55 82 -55 87 0 12 77 73 92 73 7 0 54 -58 105 -128 127
-176 130 -179 183 -173 22 3 50 40 50 65 0 11 -32 64 -72 116 -105 140 -148
202 -148 214 0 9 28 31 87 69 8 5 32 -20 73 -75 135 -185 138 -188 170 -188
37 0 70 31 70 66 0 16 -25 59 -69 117 -37 51 -81 111 -96 135 -27 42 -28 43
-9 56 10 8 37 28 58 45 29 23 42 28 52 20 7 -6 52 -64 101 -130 85 -116 108
-135 149 -127 26 5 57 52 50 76 -4 11 -43 69 -87 129 -109 146 -111 149 -74
179 17 13 33 23 37 21 4 -1 33 -33 65 -72 32 -38 68 -71 79 -73 26 -4 64 33
64 61 0 13 -22 55 -50 94 -28 39 -50 75 -49 80 0 7 140 114 159 121 4 2 43
-46 86 -105 95 -133 122 -163 146 -163 27 0 68 45 68 73 0 14 -37 74 -90 148
-49 68 -89 129 -89 134 0 12 196 166 219 172 12 3 29 -12 54 -45 40 -55 100
-112 118 -112 20 0 58 42 58 65 0 11 -25 55 -55 97 -30 42 -55 81 -55 86 0 11
114 102 128 102 4 0 25 -25 47 -56 22 -30 51 -62 63 -70 30 -20 67 -11 88 20
14 22 14 27 -1 56 -9 18 -32 54 -51 80 -38 54 -38 56 37 89 49 23 140 28 199
11z m-2569 -32 c19 -21 20 -30 14 -108 -4 -47 -7 -96 -8 -109 -2 -22 5 -26 80
-46 114 -30 156 -70 133 -126 -16 -37 -41 -43 -146 -36 l-84 6 0 -47 c0 -144
-24 -195 -88 -190 -48 4 -73 46 -80 134 -5 64 -5 64 -26 49 -126 -92 -169
-105 -206 -58 -38 49 -11 110 80 179 27 21 50 41 50 44 0 3 -19 14 -42 25 -23
11 -57 34 -75 51 -27 26 -33 39 -33 72 0 33 5 45 25 58 32 21 70 14 163 -31
51 -24 74 -31 77 -22 3 6 13 41 24 75 11 35 27 72 37 83 24 27 78 25 105 -3z
m1179 -27 c25 -47 -2 -107 -38 -84 -24 15 -38 69 -22 88 17 21 47 19 60 -4z
m-2186 -224 c17 -13 18 -37 17 -383 -2 -353 -3 -370 -22 -389 -19 -19 -35 -20
-552 -23 l-533 -3 -25 27 -24 26 -3 354 -3 354 25 25 25 25 539 0 c430 0 542
-3 556 -13z m-965 -1326 c18 -33 -42 -60 -78 -34 -17 11 -19 18 -11 34 15 26
75 26 89 0z m-6 -318 c12 -58 64 -122 122 -150 30 -15 55 -30 55 -34 0 -4 -22
-15 -50 -24 -47 -15 -109 -71 -111 -100 0 -5 -9 -28 -18 -50 l-18 -40 -13 43
c-8 24 -31 63 -51 86 -36 41 -49 49 -124 77 l-30 11 53 20 c65 24 114 73 143
144 24 57 33 61 42 17z m5006 -46 c6 -8 15 -34 19 -58 7 -43 8 -44 54 -50 79
-12 120 -48 99 -88 -13 -23 -29 -29 -96 -37 l-53 -6 -5 -44 c-14 -125 -97
-123 -115 3 l-7 48 -56 5 c-63 6 -89 22 -89 55 0 32 20 45 88 58 l60 11 5 50
c7 78 53 104 96 53z m-4051 11 c20 -20 14 -47 -12 -54 -65 -16 -126 15 -97 50
16 19 91 22 109 4z m-477 -155 c6 -16 3 -29 -10 -45 -16 -20 -22 -21 -45 -10
-28 12 -32 31 -15 63 14 27 59 22 70 -8z m-476 -427 c38 -28 -16 -74 -62 -53
-13 6 -23 18 -23 27 0 37 49 53 85 26z m5433 -158 c22 -22 14 -46 -18 -53 -56
-12 -95 18 -64 50 18 18 65 20 82 3z m-483 -162 c26 -11 35 -21 35 -38 0 -13
0 -241 0 -508 0 -453 -2 -486 -18 -503 -17 -17 -53 -18 -546 -20 -497 -2 -528
-1 -541 16 -10 14 -14 125 -17 510 -2 296 0 501 5 514 6 12 22 27 36 32 15 5
232 10 519 10 409 1 499 -1 527 -13z m-1741 -312 c9 -8 16 -25 16 -38 0 -47
-53 -63 -72 -21 -9 19 -8 29 6 50 19 29 29 31 50 9z m-3295 -98 c7 -8 11 -32
9 -53 -3 -35 -5 -38 -33 -38 -28 0 -30 3 -33 39 -2 21 -1 44 2 52 7 18 40 18
55 0z m654 -293 c213 -322 310 -474 304 -480 -3 -2 -87 -15 -188 -28 -101 -14
-194 -27 -206 -30 -22 -5 -24 -3 -38 59 -18 83 -118 191 -206 222 -28 11 -54
24 -56 31 -8 20 183 503 198 503 5 0 91 -125 192 -277z m-403 -378 c0 -2 -9
-3 -20 -2 -11 1 -20 7 -20 14 0 11 5 11 20 3 11 -6 20 -13 20 -15z m4504 -544
c3 -5 28 -14 54 -21 64 -15 140 -74 169 -130 32 -64 30 -86 -8 -94 -94 -19
-184 7 -234 66 -30 36 -35 116 -9 142 19 20 11 20 -25 1 -38 -19 -49 -52 -57
-172 l-7 -103 -208 0 c-150 0 -215 4 -230 13 -17 10 -23 10 -26 0 -4 -10 -98
-13 -424 -13 l-419 0 0 58 c0 111 67 201 180 242 52 18 84 19 647 20 340 0
594 -4 597 -9z"/>
<path d="M5295 4711 c-30 -13 -75 -61 -81 -88 -23 -90 34 -181 120 -190 84
-10 149 39 161 122 9 55 -20 122 -64 148 -30 18 -101 22 -136 8z"/>
<path d="M782 4938 c-17 -17 -17 -419 0 -436 9 -9 93 -12 314 -12 262 0 305 2
318 16 14 13 16 47 16 219 0 192 -1 205 -19 215 -29 15 -613 14 -629 -2z"/>
<path d="M4818 2163 c-9 -2 -21 -18 -27 -35 -13 -36 -15 -476 -3 -495 6 -9 86
-13 317 -13 287 -2 310 0 322 16 10 14 13 74 11 263 l-3 245 -25 13 c-19 9
-96 12 -300 12 -151 -1 -283 -3 -292 -6z"/>
<path d="M6295 276 c-16 -7 -48 -16 -70 -20 -21 -4 -45 -16 -53 -27 -7 -11
-17 -17 -21 -14 -5 2 -18 -4 -30 -14 -16 -14 -18 -21 -9 -24 8 -3 5 -6 -7 -7
-11 0 -47 -3 -80 -6 -33 -3 -952 -6 -2042 -6 -1914 -2 -1983 -1 -1996 16 -12
16 -22 18 -73 12 -67 -9 -80 -9 -264 -1 -203 8 -205 8 -241 -9 -30 -14 -111
-16 -669 -18 -349 -1 -659 1 -687 6 l-53 8 0 -86 0 -86 3165 0 3165 0 0 145
c0 80 -1 145 -2 145 -2 -1 -16 -7 -33 -14z"/>
<path d="M6125 230 c-13 -6 -15 -9 -5 -9 8 0 22 4 30 9 18 12 2 12 -25 0z"/>
<path d="M3540 210 c0 -5 5 -10 10 -10 6 0 10 5 10 10 0 6 -4 10 -10 10 -5 0
-10 -4 -10 -10z"/>
<path d="M5910 204 c0 -9 7 -14 17 -12 25 5 28 28 4 28 -12 0 -21 -6 -21 -16z"/>
<path d="M6078 208 c5 -5 16 -8 23 -6 8 3 3 7 -10 11 -17 4 -21 3 -13 -5z"/>
</g>
</svg>
