<?xml version="1.0" standalone="no"?>
<!DOCTYPE svg PUBLIC "-//W3C//DTD SVG 20010904//EN"
 "http://www.w3.org/TR/2001/REC-SVG-20010904/DTD/svg10.dtd">
<svg version="1.0" xmlns="http://www.w3.org/2000/svg"
 width="70.000000pt" height="70.000000pt" viewBox="0 0 70.000000 70.000000"
 preserveAspectRatio="xMidYMid meet">
<metadata>
Created by potrace 1.14, written by Peter Selinger 2001-2017
</metadata>
<g transform="translate(0.000000,70.000000) scale(0.100000,-0.100000)"
fill="#000000" stroke="none">
<path d="M387 523 c-9 -8 -7 -301 2 -333 5 -19 13 -25 36 -25 l30 0 3 88 3 87
67 0 c37 0 84 5 105 11 34 9 37 13 37 48 0 72 -16 97 -72 115 -50 16 -198 23
-211 9z m190 -45 c32 -12 50 -38 39 -57 -8 -13 -103 -34 -121 -27 -10 4 -15
20 -15 51 0 44 1 45 32 45 17 0 47 -5 65 -12z"/>
<path d="M61 491 c-17 -30 -14 -293 3 -316 11 -15 31 -19 118 -23 122 -5 151
4 146 46 l-3 27 -97 0 -98 0 -2 140 -3 140 -27 3 c-18 2 -30 -3 -37 -17z"/>
</g>
</svg>
