<?xml version="1.0" standalone="no"?>
<!DOCTYPE svg PUBLIC "-//W3C//DTD SVG 20010904//EN"
 "http://www.w3.org/TR/2001/REC-SVG-20010904/DTD/svg10.dtd">
<svg version="1.0" xmlns="http://www.w3.org/2000/svg"
 width="633.000000pt" height="633.000000pt" viewBox="0 0 633.000000 633.000000"
 preserveAspectRatio="xMidYMid meet">
<metadata>
Created by potrace 1.14, written by Peter Selinger 2001-2017
</metadata>
<g transform="translate(0.000000,633.000000) scale(0.100000,-0.100000)"
fill="#000000" stroke="none">
<path d="M4685 6220 c3 -5 8 -10 11 -10 2 0 4 5 4 10 0 6 -5 10 -11 10 -5 0
-7 -4 -4 -10z"/>
<path d="M3230 6040 c0 -5 5 -10 10 -10 6 0 10 5 10 10 0 6 -4 10 -10 10 -5 0
-10 -4 -10 -10z"/>
<path d="M160 5950 c-21 -4 -27 -8 -15 -10 37 -4 108 2 129 10 27 11 -62 11
-114 0z"/>
<path d="M338 5953 c12 -2 32 -2 45 0 12 2 2 4 -23 4 -25 0 -35 -2 -22 -4z"/>
<path d="M498 5953 c12 -2 32 -2 45 0 12 2 2 4 -23 4 -25 0 -35 -2 -22 -4z"/>
<path d="M755 5950 c71 -3 104 -7 80 -10 -79 -10 1103 -9 1249 1 94 6 151 6
155 0 4 -6 381 -9 996 -9 545 0 995 -1 1000 -2 6 -1 128 -2 273 -1 223 1 262
3 262 16 0 13 -255 14 -2067 12 -1138 -1 -2014 -4 -1948 -7z"/>
<path d="M4880 5950 c0 -5 -10 -10 -22 -10 -12 0 -19 -2 -17 -5 3 -2 47 1 98
7 77 9 94 9 101 -2 7 -11 14 -12 32 -3 21 10 581 10 906 0 51 -2 87 0 80 5
-10 5 -8 8 5 8 9 0 17 -4 17 -8 0 -5 24 -8 53 -6 82 4 84 4 62 14 -30 12
-1315 13 -1315 0z"/>
<path d="M37 5906 c-12 -9 -14 -16 -7 -21 12 -7 40 11 40 26 0 13 -12 11 -33
-5z"/>
<path d="M108 5913 c7 -3 16 -2 19 1 4 3 -2 6 -13 5 -11 0 -14 -3 -6 -6z"/>
<path d="M111 5891 c-29 -10 -65 -28 -80 -38 l-26 -20 -3 -2692 -2 -2691 47
-31 c96 -61 -13 -57 1953 -66 2393 -11 3792 -10 4025 3 172 9 195 13 248 37
l57 26 0 2715 0 2715 -57 28 -58 28 -3025 2 c-2921 2 -3027 2 -3079 -16z
m5119 -601 c78 -21 124 -63 231 -210 57 -78 133 -181 167 -228 97 -132 122
-191 122 -282 -1 -155 -21 -178 -495 -539 -311 -237 -599 -459 -704 -541 -53
-42 -154 -120 -226 -175 -71 -55 -188 -144 -260 -200 -71 -55 -188 -146 -260
-201 -71 -55 -209 -161 -305 -235 -96 -75 -249 -193 -340 -263 -91 -70 -219
-170 -285 -221 -150 -117 -330 -255 -505 -387 -74 -56 -228 -176 -342 -265
-114 -90 -211 -163 -215 -163 -5 0 -61 78 -125 173 -137 203 -241 355 -388
567 -148 214 -141 197 -94 238 21 19 74 61 118 93 61 47 81 57 92 48 7 -6 40
-48 71 -92 70 -99 115 -147 138 -147 9 0 30 13 46 30 38 38 35 50 -46 160 -97
134 -108 151 -99 159 20 18 213 161 217 161 3 0 34 -39 69 -86 97 -134 127
-164 157 -164 14 0 31 4 37 8 15 9 34 47 34 65 0 8 -41 69 -90 134 -50 66 -90
124 -90 129 0 16 231 187 240 178 4 -5 46 -62 94 -126 93 -127 116 -143 162
-114 55 37 47 61 -65 209 -45 60 -81 113 -79 118 4 11 110 99 120 99 4 0 33
-32 65 -70 63 -77 93 -93 123 -65 36 33 34 51 -19 129 -28 41 -51 79 -51 85 0
5 17 23 39 40 l38 30 20 -22 c11 -12 55 -70 97 -129 43 -59 87 -110 98 -114
32 -10 67 5 83 36 18 36 14 50 -45 125 -25 33 -67 90 -93 126 l-47 66 23 21
c12 11 58 48 101 81 62 47 82 58 93 49 8 -6 52 -62 99 -125 100 -134 125 -149
177 -105 33 28 21 72 -39 147 -31 39 -74 96 -95 127 l-39 57 43 34 c85 68 140
107 152 107 7 0 38 -33 69 -74 71 -93 97 -105 136 -66 31 31 25 55 -35 140
-30 43 -55 82 -55 87 0 12 77 73 92 73 7 0 55 -58 106 -128 119 -164 113 -157
139 -170 40 -22 93 15 93 65 0 10 -32 61 -72 113 -105 140 -148 202 -148 214
0 9 28 31 87 69 8 5 32 -20 73 -75 135 -185 138 -188 170 -188 37 0 70 31 70
66 0 16 -25 59 -69 117 -37 51 -81 111 -96 135 -27 42 -28 43 -9 56 10 8 37
28 58 45 29 23 42 28 52 20 7 -6 52 -64 101 -130 85 -116 108 -135 149 -127
26 5 57 52 50 76 -4 11 -43 69 -88 129 -108 144 -110 149 -73 179 17 13 33 23
37 21 4 -1 33 -33 65 -72 32 -38 68 -71 79 -73 26 -4 64 33 64 63 0 13 -15 43
-33 67 -40 53 -73 106 -66 110 2 2 38 29 80 61 42 31 79 57 82 57 3 0 41 -48
83 -107 95 -133 122 -163 146 -163 27 0 68 45 68 73 0 14 -37 74 -90 148 -49
68 -89 129 -89 134 0 12 196 166 219 172 11 3 27 -10 45 -34 44 -60 108 -123
124 -123 22 0 61 41 61 65 0 11 -25 55 -55 97 -30 42 -55 81 -55 87 0 11 113
101 127 101 4 0 27 -26 50 -58 52 -71 82 -90 118 -74 14 7 30 23 36 36 10 22
6 33 -39 99 -57 83 -57 82 19 116 49 23 140 28 199 11z m-2569 -31 c20 -20 21
-28 15 -108 -4 -47 -8 -97 -9 -110 -2 -22 5 -26 80 -46 114 -30 156 -70 133
-126 -16 -37 -41 -43 -145 -36 l-82 6 -6 -87 c-6 -100 -21 -140 -53 -148 -66
-17 -103 27 -112 132 -5 64 -5 64 -26 49 -125 -92 -169 -105 -205 -59 -12 15
-21 36 -21 47 0 32 36 81 95 128 30 24 55 46 55 49 0 3 -19 14 -42 25 -23 11
-57 34 -75 51 -27 26 -33 39 -33 72 0 33 5 45 25 58 32 21 70 14 163 -31 51
-24 74 -31 77 -22 3 6 13 41 24 75 11 35 27 72 37 83 24 26 78 25 105 -2z
m1179 -28 c25 -47 -2 -107 -38 -84 -24 15 -38 69 -22 88 17 21 47 19 60 -4z
m-2220 -16 c20 -10 30 -23 30 -38 0 -12 0 -240 0 -507 0 -453 -2 -486 -18
-503 -17 -17 -53 -18 -546 -20 -497 -2 -528 -1 -541 16 -10 14 -14 125 -17
510 -2 271 -2 500 1 511 10 43 38 45 564 46 427 0 502 -2 527 -15z m-931
-1534 c18 -33 -42 -60 -78 -34 -17 11 -19 18 -11 34 15 26 75 26 89 0z m45
-416 c13 -17 47 -41 75 -54 28 -14 51 -28 51 -32 0 -4 -22 -15 -50 -24 -47
-15 -109 -71 -111 -100 0 -5 -9 -28 -18 -50 l-18 -40 -13 43 c-8 24 -31 63
-51 86 -36 41 -49 49 -124 77 l-30 11 53 20 c65 24 114 73 144 145 l22 54 23
-52 c13 -29 34 -67 47 -84z m4955 52 c6 -8 15 -34 19 -58 7 -43 8 -44 57 -51
132 -19 137 -109 7 -124 l-60 -6 -5 -44 c-14 -125 -97 -123 -115 3 l-7 48 -56
5 c-63 6 -89 22 -89 55 0 32 20 45 88 58 l60 11 5 50 c7 78 53 104 96 53z
m-4051 11 c20 -20 14 -47 -12 -54 -65 -16 -126 15 -97 50 16 19 91 22 109 4z
m-477 -155 c6 -16 3 -29 -10 -45 -16 -20 -22 -21 -45 -10 -28 12 -32 31 -15
63 14 27 59 22 70 -8z m-475 -427 c15 -12 17 -19 9 -32 -23 -37 -95 -34 -95 4
0 40 48 55 86 28z m5432 -158 c20 -20 14 -45 -13 -52 -32 -8 -72 2 -79 20 -13
33 64 60 92 32z m-483 -162 c26 -11 35 -21 35 -38 0 -13 0 -241 0 -508 0 -454
-2 -486 -18 -503 -17 -17 -52 -18 -546 -20 -496 -2 -528 -1 -541 16 -10 14
-14 127 -17 510 -2 271 -2 500 0 511 11 43 40 45 560 46 408 0 499 -2 527 -14z
m-1741 -312 c9 -8 16 -25 16 -38 0 -47 -53 -63 -72 -21 -9 19 -8 29 6 50 19
29 29 31 50 9z m-3295 -98 c7 -8 11 -32 9 -53 -3 -35 -5 -38 -33 -38 -28 0
-30 3 -33 39 -2 21 -1 44 2 52 7 18 40 18 55 0z m658 -299 c163 -246 291 -445
301 -468 3 -8 -71 -21 -253 -44 -66 -8 -130 -17 -141 -20 -19 -4 -23 2 -33 42
-26 102 -117 205 -212 239 -28 11 -54 24 -56 31 -8 20 183 503 198 503 5 0 93
-127 196 -283z m-407 -368 c0 -4 -9 -7 -20 -6 -11 1 -20 7 -20 13 0 7 8 10 20
7 11 -3 20 -9 20 -14z m4505 -548 c3 -5 20 -13 38 -16 80 -18 155 -74 186
-140 38 -82 28 -95 -79 -95 -63 0 -123 24 -159 64 -32 34 -42 124 -16 149 19
20 15 21 -18 6 -12 -6 -29 -20 -37 -32 -15 -24 -30 -123 -29 -199 l0 -48 -211
0 c-150 0 -216 4 -231 13 -17 10 -23 10 -26 0 -4 -10 -98 -13 -424 -13 l-419
0 0 58 c0 111 67 201 180 242 52 18 84 19 647 20 351 0 594 -4 598 -9z"/>
<path d="M5295 4711 c-30 -13 -75 -61 -81 -88 -23 -90 34 -181 120 -190 84
-10 149 39 161 122 9 55 -20 122 -64 148 -30 18 -101 22 -136 8z"/>
<path d="M799 4953 c-33 -9 -39 -49 -39 -286 0 -128 4 -238 8 -244 6 -9 85
-13 317 -13 285 -1 311 0 322 17 10 13 13 74 11 262 l-3 245 -25 13 c-19 9
-96 12 -300 12 -151 -1 -282 -3 -291 -6z"/>
<path d="M4818 2163 c-9 -2 -21 -18 -27 -35 -13 -36 -15 -476 -3 -495 6 -9 86
-13 317 -13 287 -2 310 0 322 16 10 14 13 74 11 263 l-3 245 -25 13 c-19 9
-96 12 -300 12 -151 -1 -283 -3 -292 -6z"/>
<path d="M6244 261 c-28 -9 -59 -23 -69 -31 -10 -8 -37 -15 -61 -15 -23 0 -40
-3 -37 -7 2 -5 14 -8 26 -8 20 0 19 -2 -6 -15 -16 -8 -38 -14 -50 -14 -12 0
-38 -3 -57 -8 -19 -4 -925 -8 -2014 -7 -1798 0 -1979 2 -1987 16 -7 13 -21 15
-71 12 -77 -6 -89 -6 -263 1 -201 8 -225 8 -250 -9 -20 -13 -111 -16 -662 -18
-351 -1 -662 1 -690 6 l-53 8 0 -86 0 -86 3165 0 3165 0 0 140 c0 159 5 151
-86 121z"/>
<path d="M6120 230 c-13 -9 -13 -10 0 -10 8 0 22 5 30 10 13 9 13 10 0 10 -8
0 -22 -5 -30 -10z"/>
<path d="M3540 210 c0 -5 5 -10 10 -10 6 0 10 5 10 10 0 6 -4 10 -10 10 -5 0
-10 -4 -10 -10z"/>
<path d="M5910 204 c0 -9 7 -14 17 -12 25 5 28 28 4 28 -12 0 -21 -6 -21 -16z"/>
</g>
</svg>
