<?xml version="1.0" standalone="no"?>
<!DOCTYPE svg PUBLIC "-//W3C//DTD SVG 20010904//EN"
 "http://www.w3.org/TR/2001/REC-SVG-20010904/DTD/svg10.dtd">
<svg version="1.0" xmlns="http://www.w3.org/2000/svg"
 width="709.000000pt" height="709.000000pt" viewBox="0 0 709.000000 709.000000"
 preserveAspectRatio="xMidYMid meet">
<metadata>
Created by potrace 1.14, written by Peter Selinger 2001-2017
</metadata>
<g transform="translate(0.000000,709.000000) scale(0.100000,-0.100000)"
fill="#000000" stroke="none">
<path d="M0 6985 l0 -105 48 45 c26 25 83 64 127 88 l80 42 3265 3 c2046 1
3284 -1 3316 -7 70 -13 139 -46 196 -93 26 -21 49 -38 52 -38 3 0 6 38 6 85
l0 85 -3545 0 -3545 0 0 -105z"/>
<path d="M244 6874 c-79 -28 -149 -107 -175 -198 -5 -17 -9 -1179 -9 -2583 0
-1953 -3 -2553 -12 -2553 -9 0 -9 -3 0 -12 16 -16 16 -220 0 -236 -9 -9 -9
-12 0 -12 9 0 12 -100 12 -427 0 -236 4 -445 9 -465 12 -50 56 -125 86 -144
12 -8 26 -27 30 -42 4 -15 10 -21 12 -14 8 21 31 13 37 -13 4 -14 11 -23 17
-20 7 5 6 12 -2 21 -9 10 -9 14 0 14 6 0 14 -6 17 -14 3 -8 13 -12 25 -9 10 3
25 0 32 -6 8 -6 17 -8 21 -4 4 4 11 1 16 -7 8 -12 10 -11 10 5 1 18 2 18 22
-5 19 -23 20 -23 14 -3 -6 18 -4 20 14 16 11 -3 20 -10 20 -15 0 -7 5 -6 13 1
8 6 17 8 20 4 4 -3 7 -2 7 3 0 6 27 10 59 10 40 0 58 -3 55 -11 -3 -6 3 -28
12 -50 11 -28 18 -35 24 -25 5 9 2 25 -8 42 -18 31 -11 48 13 28 13 -11 14
-10 9 3 -6 16 18 19 32 4 10 -10 26 -9 20 2 -3 4 12 5 34 1 26 -5 41 -3 44 4
2 6 5 3 5 -6 1 -10 5 -18 11 -18 5 0 7 6 4 13 -5 15 17 16 49 2 10 -4 23 -3
29 3 11 11 39 5 50 -12 5 -7 8 -6 8 3 0 7 6 11 15 7 8 -3 15 -1 15 4 0 17 38
11 49 -7 7 -12 10 -13 11 -4 0 9 9 12 30 9 17 -3 30 -2 30 2 0 4 13 5 29 2 30
-4 46 -24 35 -45 -3 -7 2 -3 10 7 9 11 16 24 16 28 0 5 21 8 48 8 26 0 86 2
135 4 57 3 87 1 87 -6 0 -6 6 -6 15 2 10 9 29 10 62 5 73 -12 83 -12 83 -3 0
13 58 9 63 -4 4 -10 6 -10 6 0 1 10 6 10 21 2 11 -6 20 -7 20 -3 0 4 30 7 67
6 38 -2 84 -2 103 -2 82 2 158 2 198 -2 23 -2 42 -2 42 1 0 3 24 5 53 4 89 -4
194 -3 220 2 14 2 29 0 32 -6 4 -6 12 -7 18 -3 19 12 848 13 870 1 11 -5 17
-6 14 -1 -6 10 843 11 860 0 6 -4 14 -4 17 1 7 11 156 12 178 1 10 -5 19 -5
22 0 4 5 78 10 166 10 l160 0 -4 -29 c-2 -17 0 -33 5 -36 5 -3 9 11 9 30 l0
35 203 -3 c111 -2 204 -5 207 -6 3 -1 10 -1 15 0 6 2 47 4 91 6 74 3 82 1 87
-17 3 -10 10 -19 16 -19 15 0 14 27 -1 33 -7 3 10 3 37 1 28 -3 56 -6 63 -9 6
-2 12 -1 12 4 0 10 325 9 336 -1 3 -4 14 -4 23 1 14 7 196 8 211 1 3 -1 10 -1
15 0 10 2 75 1 150 -4 22 -1 45 2 51 6 7 5 18 2 28 -7 9 -9 16 -12 16 -7 0 13
39 22 45 11 3 -4 16 -4 30 1 16 6 25 5 29 -3 2 -7 5 -8 5 -1 1 15 132 8 143
-8 5 -9 8 -9 8 -1 0 7 17 11 45 11 25 0 45 -4 45 -10 0 -5 7 -2 16 6 20 20 63
21 70 1 4 -8 10 -15 15 -15 4 0 6 6 4 13 -3 7 4 13 19 13 19 1 23 -2 19 -15
-4 -12 -2 -11 9 3 8 10 20 16 26 12 6 -3 14 -1 17 5 4 5 13 8 20 5 8 -3 16 0
19 7 2 7 5 4 5 -5 1 -10 5 -18 10 -18 5 0 7 8 4 18 -3 12 4 24 19 34 13 8 40
33 61 54 27 28 37 34 37 21 0 -10 7 -20 15 -23 8 -4 12 -10 9 -15 -3 -5 -1 -9
4 -9 5 0 15 12 23 28 21 42 23 49 7 28 -16 -20 -36 -6 -22 16 4 6 3 8 -3 5 -6
-4 -13 2 -16 13 -6 25 3 33 21 17 13 -10 14 -9 4 10 -13 23 -16 101 -6 127 5
13 9 14 20 5 20 -17 18 6 -3 26 -14 14 -17 41 -18 166 -1 89 2 149 8 149 6 0
6 5 0 13 -7 9 -9 354 -3 462 0 6 -1 84 -2 173 -2 90 0 166 5 169 4 2 5 9 1 14
-3 6 -8 1132 -10 2502 -3 1822 -7 2505 -15 2540 -9 37 -24 62 -63 102 -92 94
273 85 -3425 84 -2836 0 -3271 -3 -3307 -15z m4304 -366 c187 -181 192 -189
155 -230 -37 -41 -65 -26 -211 114 -75 72 -145 141 -154 152 -36 43 -12 96 43
96 25 0 54 -23 167 -132z m-3238 107 c0 -6 -89 -98 -197 -205 -109 -107 -328
-323 -486 -480 -228 -226 -290 -282 -297 -270 -10 16 -13 953 -3 963 10 11
983 3 983 -8z m1090 5 c0 -16 -107 -119 -135 -130 -40 -15 -598 -13 -613 2
-15 15 -16 63 -1 89 23 45 54 48 412 49 208 0 337 -4 337 -10z m3074 -19 c28
-27 36 -87 14 -109 -9 -9 -87 -12 -290 -12 -238 0 -284 2 -310 16 -36 18 -138
112 -138 126 0 5 146 8 349 6 l349 -3 26 -24z m1323 16 c11 -11 16 -906 6
-935 -8 -20 -58 27 -491 454 -265 262 -482 481 -482 485 0 11 956 7 967 -4z
m-3560 -79 c46 -43 57 -30 -253 -324 -117 -111 -147 -134 -171 -134 -51 0 -74
53 -42 97 25 34 353 345 384 364 39 24 54 24 82 -3z m-462 -8 c29 -32 12 -60
-99 -168 -91 -88 -109 -102 -138 -102 -41 0 -58 15 -58 51 0 22 23 49 111 133
119 113 147 126 184 86z m869 -5 c10 -14 15 -34 11 -44 -3 -9 -61 -72 -128
-139 -131 -129 -157 -143 -199 -105 -32 29 -23 67 30 115 26 25 84 79 129 121
92 87 127 98 157 52z m484 -57 c48 -46 125 -120 172 -165 47 -45 97 -91 111
-102 15 -11 32 -34 39 -51 17 -41 -7 -80 -51 -80 -25 0 -61 30 -235 198 -113
108 -207 207 -211 220 -7 31 22 62 59 62 22 0 48 -19 116 -82z m-143 -264 c95
-89 155 -153 155 -165 0 -22 -33 -59 -53 -59 -21 0 -58 29 -166 134 -58 56
-117 113 -133 128 -44 42 -30 108 23 108 12 0 83 -59 174 -146z m-2181 90 c21
-20 20 -53 -1 -76 -15 -16 -36 -18 -232 -18 -235 0 -261 5 -261 55 0 52 13 55
255 55 190 0 226 -2 239 -16z m4067 6 c27 -15 25 -64 -3 -84 -19 -13 -62 -16
-265 -16 -230 0 -244 1 -263 20 -24 24 -25 47 -3 72 15 16 37 18 265 18 153 0
257 -4 269 -10z m-799 -17 c21 -19 24 -76 6 -90 -7 -6 -25 -13 -41 -17 -21 -5
-33 -1 -52 18 -29 29 -31 52 -9 84 18 27 69 30 96 5z m-2841 -22 c50 -51 32
-124 -35 -137 -49 -9 -76 3 -92 42 -18 42 -10 78 23 104 36 28 70 25 104 -9z
m991 -158 c25 -23 23 -68 -4 -87 -33 -23 -64 -19 -87 10 -25 32 -26 43 -5 72
18 27 69 30 96 5z m393 -9 c30 -33 32 -73 4 -108 -37 -47 -128 -29 -143 28
-21 84 81 142 139 80z m-1802 -85 c47 -21 48 -76 1 -97 -17 -8 -128 -12 -357
-12 -288 0 -336 2 -355 16 -30 21 -27 74 5 90 33 16 671 19 706 3z m3953 -1
c51 -24 39 -91 -18 -101 -18 -4 -264 -6 -547 -7 -443 0 -518 2 -538 15 -36 24
-26 83 17 98 31 11 1061 6 1086 -5z m349 -13 c30 -29 32 -58 4 -86 -46 -46
-132 4 -110 64 10 26 39 45 69 46 7 1 24 -10 37 -24z m-5225 -273 c25 -20 30
-63 10 -87 -28 -34 -110 -7 -110 37 0 22 43 68 63 68 8 0 25 -8 37 -18z m5468
-270 c141 -146 275 -284 297 -307 l40 -40 3 41 c2 23 -3 55 -10 72 -7 17 -64
85 -125 151 -62 67 -113 127 -113 134 0 27 31 57 60 57 23 0 49 -22 145 -122
65 -68 126 -141 136 -163 16 -34 19 -66 19 -222 0 -100 -4 -184 -9 -187 -8 -5
-121 107 -447 444 -67 69 -165 170 -219 225 -113 117 -128 136 -119 159 8 21
41 35 66 28 10 -2 134 -124 276 -270z m-3932 240 c8 -16 10 -406 9 -1425 -1
-771 -3 -1410 -4 -1420 -2 -36 -82 -45 -95 -10 -12 29 -7 2843 5 2864 15 28
69 22 85 -9z m348 6 c14 -20 16 -126 16 -938 0 -868 1 -917 19 -955 25 -55 58
-82 114 -95 80 -18 153 25 183 107 11 31 13 207 14 952 0 836 1 916 17 933 23
25 59 23 78 -6 14 -21 15 -128 13 -962 -3 -1063 4 -973 -87 -1064 -104 -103
-257 -106 -369 -5 -30 27 -59 65 -73 97 l-24 53 0 936 c0 779 2 939 14 952 20
25 67 21 85 -5z m-902 -178 c3 -8 4 -732 1 -1607 l-5 -1593 413 0 c228 0 530
0 672 0 l257 1 0 -306 0 -305 -995 0 -995 0 0 1908 c0 1050 3 1912 8 1916 4 4
149 6 322 4 268 -3 316 -5 322 -18z m3338 6 c219 -10 440 -85 625 -209 86 -59
253 -229 316 -322 144 -215 208 -466 196 -759 -15 -341 -120 -606 -326 -819
-187 -193 -397 -298 -706 -352 -66 -12 -184 -17 -450 -21 -198 -2 -366 -7
-372 -9 -10 -3 -13 -145 -13 -665 l0 -660 -355 0 -354 0 -1 1908 c0 1050 2
1910 4 1913 6 6 1304 2 1436 -5z m-4533 -55 c9 -19 9 -30 0 -46 -10 -18 -143
-148 -219 -214 -14 -12 -18 -31 -18 -78 0 -35 3 -63 6 -63 3 0 91 81 195 180
112 107 197 180 208 180 33 0 75 -43 67 -67 -4 -12 -93 -103 -199 -204 -106
-100 -195 -188 -199 -194 -6 -10 17 -13 104 -14 88 -1 116 -5 130 -18 23 -21
23 -55 -1 -77 -16 -14 -42 -16 -217 -14 l-199 3 0 203 0 203 126 125 c123 121
128 125 165 122 29 -2 42 -9 51 -27z m77 -863 c21 -29 20 -51 -2 -71 -14 -13
-48 -16 -197 -17 -99 -1 -188 1 -198 5 -25 10 -32 51 -13 80 l16 25 190 0
c184 0 189 -1 204 -22z m6014 6 c62 -43 -10 -141 -73 -100 -36 24 -37 70 -3
99 25 21 47 22 76 1z m-6018 -324 c11 -11 20 -29 20 -40 0 -11 -9 -29 -20 -40
-18 -18 -33 -20 -198 -20 -144 0 -182 3 -200 16 -28 19 -28 53 -2 82 20 21 28
22 200 22 167 0 181 -1 200 -20z m6034 -32 c14 -19 16 -71 16 -362 0 -302 -2
-341 -17 -358 -22 -25 -59 -23 -77 4 -14 19 -16 71 -16 362 0 302 2 341 17
358 22 25 59 23 77 -4z m-6030 -293 c21 -27 20 -51 -4 -75 -18 -18 -33 -20
-198 -20 -144 0 -182 3 -200 16 -38 26 -23 77 28 97 8 3 92 5 187 4 159 -2
173 -4 187 -22z m-7 -317 c19 -25 21 -58 5 -78 -16 -20 -26 -20 -207 -18
l-189 3 -15 26 c-13 24 -13 29 2 53 l17 26 189 0 c139 0 191 -3 198 -12z
m2436 -311 c69 -32 145 -105 176 -171 98 -211 -23 -453 -249 -494 -65 -12
-164 0 -226 28 -57 24 -133 102 -164 165 -36 72 -40 198 -10 277 24 64 103
158 154 185 97 51 221 55 319 10z m-2427 -51 c13 -22 14 -29 2 -53 l-13 -28
-195 0 -194 0 -15 27 c-12 21 -13 31 -3 52 l12 26 195 0 195 0 16 -24z m6002
8 c51 -36 46 -111 -10 -140 -59 -30 -122 7 -122 73 0 66 78 105 132 67z
m-6018 -322 c24 -20 30 -66 11 -85 -13 -13 -333 -24 -377 -13 -48 13 -57 88
-11 105 12 5 97 10 188 10 147 1 169 -1 189 -17z m5735 -47 c51 -50 17 -145
-53 -145 -88 0 -115 116 -37 158 32 18 64 14 90 -13z m-452 -97 c16 -12 125
-238 257 -533 32 -71 76 -168 98 -216 22 -47 46 -104 53 -127 11 -37 10 -44
-6 -62 -22 -25 -57 -26 -78 -2 -9 10 -29 49 -45 88 -32 76 -144 318 -287 619
-83 174 -89 193 -70 222 17 25 52 30 78 11z m-5538 -168 c4 -6 13 -7 23 -2 9
5 64 8 120 8 96 -1 105 -3 123 -25 24 -30 24 -46 -1 -71 -19 -19 -33 -20 -200
-20 -167 0 -181 1 -200 20 -31 31 -21 78 20 93 27 10 109 7 115 -3z m5131
-100 c110 -28 205 -78 302 -161 137 -116 217 -243 248 -389 15 -71 12 -122 -8
-147 -12 -15 -64 -17 -73 -4 -3 5 -16 52 -29 104 -30 118 -65 190 -131 270
-95 115 -240 202 -383 229 -113 21 -274 -9 -357 -65 -16 -12 -58 -45 -93 -74
-35 -29 -69 -53 -75 -53 -25 0 -57 32 -57 56 0 67 219 216 356 242 87 17 215
13 300 -8z m-4890 -216 c29 -8 46 -47 34 -78 -12 -31 -62 -38 -258 -34 -129 3
-145 5 -158 22 -21 29 -17 63 8 80 18 13 54 16 188 16 91 0 175 -3 186 -6z
m6030 -30 c34 -52 -26 -121 -82 -95 -32 14 -48 55 -33 84 16 30 28 37 66 37
24 0 37 -7 49 -26z m-1066 -73 c154 -58 277 -213 300 -376 21 -152 -26 -290
-136 -395 -109 -105 -233 -144 -387 -122 -207 30 -364 182 -398 386 -40 239
133 484 371 525 71 12 193 4 250 -18z m-4922 -227 c24 -16 29 -53 12 -85 -8
-14 -21 -19 -48 -19 -46 0 -62 14 -62 54 0 57 51 83 98 50z m6024 -113 c-5
-48 3 -40 -222 -256 -74 -71 -288 -278 -475 -460 -187 -181 -391 -379 -454
-440 -63 -60 -131 -126 -151 -145 -20 -19 -66 -63 -102 -98 l-67 -62 -75 1
c-42 1 -76 3 -76 4 0 19 55 75 318 326 169 161 435 417 592 568 295 286 448
432 609 586 l95 90 6 -35 c3 -19 4 -55 2 -79z m-5499 -862 c53 -49 66 -67 62
-83 -5 -17 -4 -18 4 -6 9 12 58 -33 266 -240 l255 -255 -71 -7 c-39 -4 -77 -4
-84 0 -27 15 -1162 1135 -1339 1320 -62 65 -62 64 -58 182 l2 45 448 -447
c246 -245 477 -474 515 -509z m5507 339 c2 -403 -1 -922 -4 -926 -3 -2 -238
-5 -523 -6 -464 -1 -518 1 -521 15 -3 16 1019 1039 1038 1039 6 0 10 -49 10
-122z m-6145 -259 c132 -130 331 -325 443 -434 117 -115 202 -206 202 -217 0
-16 -10 -18 -82 -19 -46 -1 -99 -1 -118 0 -19 1 -73 1 -120 0 -560 -5 -610 -4
-611 11 -1 10 -3 9 -6 -3 -3 -10 -12 -17 -21 -15 -14 3 -17 17 -18 76 -1 54 2
72 13 72 7 0 13 -5 13 -12 0 -6 3 -8 7 -5 3 4 -3 16 -14 27 -19 17 -21 31 -21
110 0 73 3 90 15 90 13 0 13 2 0 15 -13 12 -15 60 -15 297 1 156 3 291 6 301
6 22 -3 30 327 -294z m2002 210 c348 -29 634 -153 876 -379 93 -88 105 -112
67 -150 -33 -33 -51 -26 -155 65 -164 143 -366 256 -540 301 -155 41 -229 45
-920 50 -613 5 -673 7 -700 23 -35 20 -44 60 -20 85 15 14 78 16 640 16 362 0
678 -5 752 -11z m1964 -9 c21 -12 25 -50 9 -80 -8 -14 -26 -20 -87 -25 -261
-22 -396 -93 -685 -362 -37 -35 -76 -63 -87 -63 -54 0 -81 42 -56 89 15 30
201 199 295 268 102 76 250 141 380 168 79 16 204 19 231 5z m374 -185 c14
-13 25 -33 25 -45 0 -29 -44 -70 -75 -70 -61 0 -87 81 -39 119 35 27 59 26 89
-4z m405 -47 c11 -12 20 -24 20 -27 -2 -22 -55 -77 -285 -297 -363 -347 -337
-326 -393 -322 -45 3 -47 4 -47 35 0 33 -3 29 421 432 200 191 212 201 238
201 14 0 34 -10 46 -22z m-3393 -280 c156 -156 286 -293 290 -306 11 -44 -53
-80 -96 -53 -7 5 -139 134 -292 287 -176 175 -279 286 -279 298 0 30 30 56 63
56 25 0 69 -40 314 -282z m729 150 c332 -317 434 -423 434 -450 0 -36 -26 -60
-60 -56 -40 4 -600 555 -600 590 0 33 18 48 55 48 27 0 53 -20 171 -132z
m-560 114 c6 -4 142 -135 303 -291 333 -326 343 -341 214 -341 l-45 0 -269
268 c-149 147 -276 278 -283 292 -13 25 -11 45 7 68 10 13 55 16 73 4z m2404
-13 c58 -26 96 -63 126 -121 34 -66 39 -115 20 -182 -57 -194 -302 -249 -449
-100 -117 118 -66 331 96 405 57 25 148 25 207 -2z m-1338 -217 c14 -9 46 -33
70 -54 58 -49 131 -85 225 -108 132 -34 255 -5 383 90 60 45 81 49 110 20 31
-31 25 -68 -15 -106 -191 -180 -515 -191 -737 -24 -131 99 -157 152 -93 188
26 15 26 15 57 -6z"/>
<path d="M420 6210 c0 -170 2 -310 4 -310 3 0 145 140 316 310 l312 310 -316
0 -316 0 0 -310z"/>
<path d="M6110 6512 c0 -8 582 -592 590 -592 3 0 5 135 5 300 l0 300 -297 0
c-164 0 -298 -3 -298 -8z"/>
<path d="M1620 4440 c0 -5 5 -10 11 -10 5 0 7 5 4 10 -3 6 -8 10 -11 10 -2 0
-4 -4 -4 -10z"/>
<path d="M1566 2535 c-3 -8 -1 -15 4 -15 6 0 10 7 10 15 0 8 -2 15 -4 15 -2 0
-6 -7 -10 -15z"/>
<path d="M2821 1934 c0 -11 3 -14 6 -6 3 7 2 16 -1 19 -3 4 -6 -2 -5 -13z"/>
<path d="M2362 1919 c2 -7 10 -15 17 -17 8 -3 12 1 9 9 -2 7 -10 15 -17 17 -8
3 -12 -1 -9 -9z"/>
<path d="M2665 1850 c3 -5 8 -10 11 -10 2 0 4 5 4 10 0 6 -5 10 -11 10 -5 0
-7 -4 -4 -10z"/>
<path d="M1340 1816 c0 -2 7 -6 15 -10 8 -3 15 -1 15 4 0 6 -7 10 -15 10 -8 0
-15 -2 -15 -4z"/>
<path d="M1485 1756 c-5 -11 -3 -21 6 -26 19 -12 21 -7 10 21 -8 22 -10 22
-16 5z"/>
<path d="M4632 4943 l-152 -4 2 -652 3 -652 240 -3 c272 -3 395 7 504 44 146
49 282 165 353 300 55 104 72 180 72 314 -1 100 -4 126 -29 200 -72 212 -251
382 -460 435 -65 17 -269 23 -533 18z m512 -555 c19 -29 75 -59 146 -78 l45
-12 -66 -22 c-114 -37 -140 -65 -163 -178 l-12 -61 -13 59 c-26 117 -63 155
-181 184 l-65 16 69 18 c38 9 82 24 98 32 31 16 60 69 79 144 l12 45 16 -60
c9 -33 25 -72 35 -87z"/>
<path d="M4030 2851 c0 -6 5 -13 10 -16 6 -3 10 1 10 9 0 9 -4 16 -10 16 -5 0
-10 -4 -10 -9z"/>
<path d="M4230 2050 c0 -5 5 -10 10 -10 6 0 10 5 10 10 0 6 -4 10 -10 10 -5 0
-10 -4 -10 -10z"/>
<path d="M606 5125 c-9 -26 -7 -32 5 -12 6 10 9 21 6 23 -2 3 -7 -2 -11 -11z"/>
<path d="M2960 3247 c-49 -16 -133 -102 -148 -153 -42 -144 41 -281 190 -313
43 -10 61 -9 105 5 65 20 130 75 154 128 23 51 25 143 3 194 -47 113 -185 176
-304 139z"/>
<path d="M5430 2141 c-145 -45 -249 -185 -250 -337 0 -100 57 -215 138 -276
70 -54 123 -71 222 -72 104 -1 155 19 234 94 78 74 101 130 101 250 0 84 -3
102 -28 152 -35 72 -126 157 -193 181 -51 18 -176 22 -224 8z m173 -145 c116
-50 143 -202 51 -288 -137 -127 -356 13 -290 186 37 95 146 142 239 102z"/>
<path d="M5490 1880 c-59 -59 10 -142 78 -94 43 30 15 114 -38 114 -11 0 -29
-9 -40 -20z"/>
<path d="M6350 917 c-190 -189 -351 -350 -358 -359 -12 -15 -7 -16 45 -11 32
2 84 0 116 -5 31 -5 57 -5 57 -1 0 4 97 7 215 6 118 -1 215 -6 215 -10 0 -5 6
-5 13 0 6 4 22 7 35 8 12 0 22 3 22 8 0 4 0 165 0 357 0 193 -3 350 -7 350 -5
-1 -163 -155 -353 -343z"/>
<path d="M6465 1149 c-4 -6 -5 -12 -2 -15 2 -3 7 2 10 11 7 17 1 20 -8 4z"/>
<path d="M6760 1046 c0 -8 4 -17 9 -20 5 -4 7 3 4 14 -6 23 -13 26 -13 6z"/>
<path d="M6060 740 c0 -11 4 -20 8 -20 4 0 8 9 9 20 1 11 -2 20 -8 20 -5 0 -9
-9 -9 -20z"/>
<path d="M6070 520 c0 -5 5 -10 11 -10 5 0 7 5 4 10 -3 6 -8 10 -11 10 -2 0
-4 -4 -4 -10z"/>
<path d="M6604 489 c-7 -12 17 -32 26 -22 3 3 -1 8 -8 10 -6 3 -10 9 -6 14 3
5 3 9 0 9 -3 0 -8 -5 -12 -11z"/>
<path d="M6477 483 c-4 -3 -7 -11 -7 -17 0 -6 5 -5 12 2 6 6 9 14 7 17 -3 3
-9 2 -12 -2z"/>
<path d="M420 1173 c0 -10 0 -144 -1 -298 0 -154 0 -293 0 -310 l1 -30 250 2
c188 1 250 -1 250 -10 0 -7 4 -6 9 3 7 11 28 15 88 14 l79 -1 -95 91 c-158
151 -471 458 -519 509 -48 50 -62 57 -62 30z"/>
<path d="M360 1111 c0 -5 5 -13 10 -16 6 -3 10 -2 10 4 0 5 -4 13 -10 16 -5 3
-10 2 -10 -4z"/>
<path d="M670 1000 c0 -5 5 -10 11 -10 5 0 7 5 4 10 -3 6 -8 10 -11 10 -2 0
-4 -4 -4 -10z"/>
<path d="M1030 690 c0 -5 5 -10 11 -10 5 0 7 5 4 10 -3 6 -8 10 -11 10 -2 0
-4 -4 -4 -10z"/>
<path d="M1100 628 c0 -9 5 -20 10 -23 13 -8 13 5 0 25 -8 13 -10 13 -10 -2z"/>
<path d="M559 513 c-13 -16 -12 -17 4 -4 9 7 17 15 17 17 0 8 -8 3 -21 -13z"/>
<path d="M446 493 c-6 -14 -5 -15 5 -6 7 7 10 15 7 18 -3 3 -9 -2 -12 -12z"/>
<path d="M728 503 c-10 -3 -15 -10 -11 -18 4 -12 7 -12 20 1 18 17 15 22 -9
17z"/>
<path d="M1180 490 c0 -5 5 -10 11 -10 5 0 7 5 4 10 -3 6 -8 10 -11 10 -2 0
-4 -4 -4 -10z"/>
<path d="M4406 948 c-51 -30 -79 -80 -73 -135 14 -138 184 -180 263 -64 29 43
30 81 5 138 -35 77 -122 104 -195 61z"/>
<path d="M20 5770 c0 -5 5 -10 10 -10 6 0 10 5 10 10 0 6 -4 10 -10 10 -5 0
-10 -4 -10 -10z"/>
<path d="M31 3724 c0 -11 3 -14 6 -6 3 7 2 16 -1 19 -3 4 -6 -2 -5 -13z"/>
<path d="M32 3500 c0 -14 2 -19 5 -12 2 6 2 18 0 25 -3 6 -5 1 -5 -13z"/>
<path d="M0 3040 c0 -5 5 -10 11 -10 5 0 7 5 4 10 -3 6 -8 10 -11 10 -2 0 -4
-4 -4 -10z"/>
<path d="M7 2423 c-4 -3 -7 -13 -7 -22 1 -13 3 -13 11 2 11 19 8 33 -4 20z"/>
<path d="M20 2176 c0 -9 5 -16 10 -16 6 0 10 4 10 9 0 6 -4 13 -10 16 -5 3
-10 -1 -10 -9z"/>
<path d="M5 2060 c-3 -6 1 -7 9 -4 18 7 21 14 7 14 -6 0 -13 -4 -16 -10z"/>
<path d="M0 1499 c0 -6 6 -17 14 -24 15 -16 27 -1 19 23 -6 15 -33 16 -33 1z"/>
<path d="M5 1350 c-3 -5 -1 -10 4 -10 6 0 11 5 11 10 0 6 -2 10 -4 10 -3 0 -8
-4 -11 -10z"/>
<path d="M0 1228 c0 -12 3 -18 7 -15 3 4 12 2 20 -5 12 -10 12 -7 2 15 -15 33
-29 35 -29 5z"/>
<path d="M5 1099 c-4 -6 -5 -12 -2 -15 2 -3 7 2 10 11 7 17 1 20 -8 4z"/>
<path d="M17 1080 c-19 -23 -23 -60 -6 -60 6 0 9 9 6 20 -3 11 -1 18 4 14 5
-3 9 0 9 6 0 6 5 8 10 5 12 -7 13 5 2 22 -6 9 -12 7 -25 -7z"/>
<path d="M36 973 c-6 -14 -5 -15 5 -6 7 7 10 15 7 18 -3 3 -9 -2 -12 -12z"/>
<path d="M10 910 c-8 -5 -12 -12 -9 -15 4 -3 12 1 19 10 14 17 11 19 -10 5z"/>
<path d="M7070 871 c0 -6 4 -13 10 -16 6 -3 7 1 4 9 -7 18 -14 21 -14 7z"/>
<path d="M6 754 c-4 -9 -4 -19 -1 -22 2 -3 7 3 11 12 4 9 4 19 1 22 -2 3 -7
-3 -11 -12z"/>
<path d="M4 686 c-4 -9 -4 -20 0 -23 3 -4 6 0 6 8 0 12 2 12 9 0 5 -8 11 -9
15 -3 3 5 -1 15 -9 22 -12 10 -16 9 -21 -4z"/>
<path d="M7067 644 c-8 -8 3 -34 14 -34 5 0 9 9 9 20 0 19 -11 26 -23 14z"/>
<path d="M0 620 c0 -19 3 -21 12 -12 9 9 9 15 0 24 -9 9 -12 7 -12 -12z"/>
<path d="M7077 563 c-4 -3 -7 -11 -7 -17 0 -6 5 -5 12 2 6 6 9 14 7 17 -3 3
-9 2 -12 -2z"/>
<path d="M7 535 c-10 -24 -9 -37 2 -30 5 3 11 -3 13 -12 2 -10 6 -13 9 -8 4 6
1 23 -6 39 -10 23 -13 25 -18 11z"/>
<path d="M7 424 c-11 -11 -9 -44 3 -44 6 0 10 -7 10 -17 0 -15 15 -10 15 5 0
4 4 13 8 20 5 7 3 12 -7 12 -8 0 -16 7 -18 16 -2 9 -6 12 -11 8z"/>
<path d="M41 339 c-7 -12 -10 -23 -8 -26 3 -3 11 5 17 17 15 28 8 35 -9 9z"/>
<path d="M1 334 c0 -11 3 -14 6 -6 3 7 2 16 -1 19 -3 4 -6 -2 -5 -13z"/>
<path d="M60 315 c0 -8 5 -15 10 -15 6 0 10 7 10 15 0 8 -4 15 -10 15 -5 0
-10 -7 -10 -15z"/>
<path d="M24 277 c3 -10 6 -23 6 -28 0 -5 5 -9 10 -9 14 0 12 13 -6 36 -14 17
-15 17 -10 1z"/>
<path d="M65 279 c-4 -6 -5 -12 -2 -15 2 -3 7 2 10 11 7 17 1 20 -8 4z"/>
<path d="M40 218 c0 -6 3 -8 7 -5 3 4 15 -1 26 -10 19 -18 19 -17 6 5 -15 23
-39 30 -39 10z"/>
<path d="M6981 205 c-1 -23 -4 -26 -11 -15 -15 24 -19 7 -5 -20 8 -14 14 -20
15 -13 0 7 9 9 23 5 19 -5 20 -4 8 11 -7 9 -11 24 -7 32 3 9 2 14 -3 10 -5 -3
-12 1 -14 7 -3 7 -6 0 -6 -17z"/>
<path d="M105 200 c3 -5 8 -10 11 -10 2 0 4 5 4 10 0 6 -5 10 -11 10 -5 0 -7
-4 -4 -10z"/>
<path d="M147 197 c-15 -10 -16 -17 -6 -45 6 -17 15 -32 21 -32 6 0 8 7 5 15
-4 8 -2 17 3 20 6 4 10 11 10 16 0 6 -5 7 -12 3 -8 -5 -9 0 -6 14 7 26 7 26
-15 9z"/>
<path d="M0 90 l0 -90 3545 0 3545 0 0 81 c0 71 -2 80 -15 69 -8 -7 -15 -9
-16 -4 0 5 -4 0 -9 -11 -11 -28 -112 -87 -152 -88 -18 -1 -36 -6 -39 -10 -3
-4 -29 -11 -57 -16 -43 -7 -52 -5 -55 8 -4 14 -5 13 -6 -1 -1 -13 -9 -17 -35
-16 -27 1 -33 5 -28 17 5 15 4 15 -10 0 -12 -12 -37 -16 -100 -17 -46 0 -89 5
-95 10 -7 6 -13 6 -13 1 0 -5 -16 -10 -35 -11 -19 -2 -35 2 -35 7 0 5 -8 7
-18 4 -10 -2 -26 5 -36 16 -20 22 -36 27 -36 12 0 -5 9 -13 20 -16 11 -3 20
-10 20 -15 0 -11 -112 -10 -127 2 -9 7 -13 7 -13 0 0 -16 -267 -16 -273 0 -4
9 -6 9 -6 1 -1 -9 -156 -12 -645 -12 -605 -1 -645 0 -649 17 -4 16 -5 16 -6 0
-1 -16 -42 -18 -648 -17 -451 0 -651 3 -660 11 -9 7 -13 7 -13 -1 0 -7 -84
-11 -285 -11 -220 0 -285 3 -285 13 0 9 -2 9 -8 -1 -6 -9 -69 -12 -268 -11
-228 2 -260 4 -266 18 -6 14 -7 14 -7 -1 -1 -15 -26 -17 -295 -16 -291 0 -294
0 -304 21 l-11 22 -7 -22 c-6 -23 -7 -23 -235 -21 -251 1 -263 4 -240 54 6 14
11 26 11 27 0 1 -15 3 -33 4 -31 2 -32 2 -12 -15 11 -9 21 -28 22 -42 1 -24 0
-25 -70 -25 -55 -1 -74 3 -79 15 -6 13 -7 13 -7 0 -2 -27 -71 -15 -71 12 0 7
6 6 15 -2 9 -7 15 -8 15 -2 0 9 -22 22 -37 22 -3 0 -2 -11 1 -25 6 -24 4 -25
-29 -20 -20 2 -40 7 -45 10 -6 3 -10 1 -10 -5 0 -7 -6 -10 -12 -7 -7 2 -12 10
-10 16 1 6 -3 11 -9 11 -6 0 -9 -6 -6 -14 5 -12 -5 -14 -48 -11 -30 2 -58 6
-64 9 -5 4 -12 2 -16 -3 -3 -6 -23 -9 -45 -8 -28 1 -42 7 -49 22 -11 19 -11
19 -6 0 4 -17 0 -20 -29 -21 -33 -1 -34 0 -25 25 l9 26 -21 -25 c-12 -14 -30
-26 -41 -26 -16 -1 -18 3 -14 22 5 18 2 24 -9 24 -12 0 -15 -6 -10 -19 8 -26
-11 -36 -24 -14 -6 10 -11 12 -11 5 0 -15 -80 -6 -95 12 -5 6 -17 10 -27 8 -9
-2 -20 2 -24 9 -4 8 -3 9 4 5 7 -4 12 -2 12 4 0 8 -9 10 -25 6 -20 -5 -23 -3
-18 10 5 13 2 15 -15 9 -14 -4 -22 -2 -22 5 0 6 -4 9 -9 6 -4 -3 -17 1 -27 9
-18 14 -18 16 -2 29 24 18 23 24 -6 24 -18 0 -23 -5 -19 -17 4 -11 -1 -9 -16
7 -12 12 -24 22 -26 22 -3 0 -5 -40 -5 -90z"/>
<path d="M196 147 c-4 -9 -8 -24 -11 -32 -5 -16 1 -18 26 -7 13 6 13 11 3 32
-11 21 -14 22 -18 7z"/>
<path d="M981 144 c0 -11 3 -14 6 -6 3 7 2 16 -1 19 -3 4 -6 -2 -5 -13z"/>
<path d="M1500 150 c0 -5 5 -10 11 -10 5 0 7 5 4 10 -3 6 -8 10 -11 10 -2 0
-4 -4 -4 -10z"/>
<path d="M3407 146 c-6 -15 1 -26 15 -26 4 0 8 9 8 20 0 23 -15 27 -23 6z"/>
<path d="M534 143 c4 -6 0 -13 -6 -16 -18 -6 -3 -20 17 -15 15 3 15 5 0 23 -9
11 -14 15 -11 8z"/>
<path d="M6700 140 c0 -5 7 -10 15 -10 8 0 15 -5 15 -12 0 -6 2 -9 5 -6 3 3 3
13 -1 22 -7 17 -34 22 -34 6z"/>
<path d="M6920 142 c0 -4 9 -13 20 -20 22 -13 27 -3 8 16 -14 14 -28 16 -28 4z"/>
<path d="M259 124 c-11 -13 -11 -20 1 -42 8 -14 22 -27 30 -30 9 -3 5 6 -10
22 -21 23 -22 30 -12 46 15 24 10 26 -9 4z"/>
<path d="M495 129 c-4 -6 -5 -12 -2 -15 2 -3 7 2 10 11 7 17 1 20 -8 4z"/>
<path d="M1650 130 c0 -5 5 -10 11 -10 5 0 7 5 4 10 -3 6 -8 10 -11 10 -2 0
-4 -4 -4 -10z"/>
<path d="M4417 127 c-3 -7 3 -13 14 -14 12 -1 16 3 12 13 -6 18 -19 18 -26 1z"/>
<path d="M6496 125 c-3 -8 -1 -15 4 -15 6 0 10 7 10 15 0 8 -2 15 -4 15 -2 0
-6 -7 -10 -15z"/>
<path d="M6882 126 c7 -8 17 -12 22 -9 4 3 2 9 -5 14 -22 13 -31 11 -17 -5z"/>
<path d="M680 120 c0 -5 5 -10 11 -10 5 0 7 5 4 10 -3 6 -8 10 -11 10 -2 0 -4
-4 -4 -10z"/>
<path d="M943 115 c-7 -8 -9 -16 -4 -19 5 -3 12 1 15 10 8 22 4 25 -11 9z"/>
<path d="M1017 109 c-4 -16 -3 -18 9 -8 7 6 11 15 8 20 -8 13 -11 11 -17 -12z"/>
<path d="M1736 116 c3 -9 16 -15 30 -14 32 3 25 22 -9 26 -21 3 -26 0 -21 -12z"/>
<path d="M6415 120 c-3 -5 1 -10 11 -10 13 0 14 -3 5 -14 -9 -11 -8 -15 5 -20
9 -4 17 -5 18 -4 1 2 8 12 16 23 14 18 13 19 -1 7 -14 -10 -17 -9 -22 8 -5 21
-22 27 -32 10z"/>
<path d="M280 101 c0 -5 5 -13 10 -16 6 -3 10 -2 10 4 0 5 -4 13 -10 16 -5 3
-10 2 -10 -4z"/>
<path d="M1670 100 c-9 -6 -10 -10 -3 -10 6 0 15 5 18 10 8 12 4 12 -15 0z"/>
<path d="M2200 106 c0 -2 8 -10 18 -17 15 -13 16 -12 3 4 -13 16 -21 21 -21
13z"/>
<path d="M4245 100 c-8 -13 -1 -24 14 -19 6 3 7 10 2 18 -6 10 -10 10 -16 1z"/>
<path d="M6790 101 c0 -6 4 -13 10 -16 6 -3 7 1 4 9 -7 18 -14 21 -14 7z"/>
<path d="M6872 90 c7 -10 14 -18 15 -16 6 6 -9 36 -18 36 -5 0 -4 -9 3 -20z"/>
<path d="M313 85 c-3 -9 -3 -19 1 -22 3 -4 6 -1 6 6 0 7 5 9 10 6 6 -3 10 1
10 9 0 21 -19 21 -27 1z"/>
<path d="M460 90 c0 -5 9 -10 21 -10 11 0 17 5 14 10 -3 6 -13 10 -21 10 -8 0
-14 -4 -14 -10z"/>
<path d="M530 91 c0 -5 5 -13 10 -16 6 -3 10 -2 10 4 0 5 -4 13 -10 16 -5 3
-10 2 -10 -4z"/>
<path d="M734 88 c-4 -7 -4 -10 1 -6 4 4 14 3 22 -3 10 -9 13 -8 13 5 0 19
-26 22 -36 4z"/>
<path d="M1290 90 c0 -4 9 -10 21 -13 12 -3 19 -1 17 5 -5 13 -38 20 -38 8z"/>
<path d="M1990 90 c-13 -8 -12 -10 3 -10 9 0 17 5 17 10 0 12 -1 12 -20 0z"/>
<path d="M5944 88 c-4 -6 -3 -8 4 -4 5 3 13 0 15 -6 3 -8 6 -6 6 5 1 19 -14
23 -25 5z"/>
<path d="M6235 90 c-3 -5 -2 -17 3 -26 8 -14 10 -12 10 9 0 29 -3 33 -13 17z"/>
<path d="M6276 84 c-5 -14 -4 -15 9 -4 17 14 19 20 6 20 -5 0 -12 -7 -15 -16z"/>
<path d="M6510 90 c0 -5 5 -10 10 -10 6 0 10 5 10 10 0 6 -4 10 -10 10 -5 0
-10 -4 -10 -10z"/>
<path d="M6640 96 c0 -2 7 -9 15 -16 9 -7 15 -8 15 -2 0 5 -7 12 -15 16 -8 3
-15 4 -15 2z"/>
<path d="M6722 75 c6 -14 13 -24 14 -22 6 6 -9 47 -17 47 -5 0 -3 -11 3 -25z"/>
<path d="M6820 91 c0 -11 29 -35 35 -29 2 2 -4 12 -15 21 -11 9 -20 13 -20 8z"/>
<path d="M360 81 c0 -5 9 -11 20 -14 14 -4 18 -11 14 -24 -5 -15 -4 -15 5 -3
13 18 14 43 2 35 -5 -3 -12 -1 -16 5 -8 12 -25 13 -25 1z"/>
<path d="M2268 83 c7 -3 16 -2 19 1 4 3 -2 6 -13 5 -11 0 -14 -3 -6 -6z"/>
<path d="M2925 80 c3 -5 10 -10 16 -10 5 0 9 5 9 10 0 6 -7 10 -16 10 -8 0
-12 -4 -9 -10z"/>
<path d="M6120 86 c0 -2 7 -6 15 -10 8 -3 15 -1 15 4 0 6 -7 10 -15 10 -8 0
-15 -2 -15 -4z"/>
<path d="M564 65 c-3 -8 -4 -20 -1 -27 4 -8 6 -6 6 5 1 9 6 17 11 17 6 0 10 5
10 10 0 15 -20 12 -26 -5z"/>
<path d="M1851 64 c0 -11 3 -14 6 -6 3 7 2 16 -1 19 -3 4 -6 -2 -5 -13z"/>
<path d="M2500 75 c0 -5 5 -17 10 -25 5 -8 10 -10 10 -5 0 6 -5 17 -10 25 -5
8 -10 11 -10 5z"/>
<path d="M5163 65 c0 -8 6 -16 14 -19 15 -6 15 -4 7 18 -8 20 -21 21 -21 1z"/>
<path d="M6547 63 c-10 -9 -9 -33 1 -33 4 0 8 9 9 20 2 21 0 24 -10 13z"/>
<path d="M1115 49 c-4 -6 -5 -12 -2 -15 2 -3 7 2 10 11 7 17 1 20 -8 4z"/>
<path d="M1185 49 c-4 -6 -5 -12 -2 -15 2 -3 7 2 10 11 7 17 1 20 -8 4z"/>
<path d="M3100 40 c0 -19 3 -21 12 -12 9 9 9 15 0 24 -9 9 -12 7 -12 -12z"/>
<path d="M4880 49 c0 -4 7 -9 15 -13 9 -3 15 0 15 8 0 7 -7 13 -15 13 -8 0
-15 -4 -15 -8z"/>
<path d="M6040 51 c0 -5 5 -13 10 -16 6 -3 10 -2 10 4 0 5 -4 13 -10 16 -5 3
-10 2 -10 -4z"/>
<path d="M6590 51 c0 -17 18 -21 24 -6 3 9 0 15 -9 15 -8 0 -15 -4 -15 -9z"/>
<path d="M2395 40 c3 -5 8 -10 11 -10 2 0 4 5 4 10 0 6 -5 10 -11 10 -5 0 -7
-4 -4 -10z"/>
<path d="M6635 40 c-3 -5 -1 -10 4 -10 6 0 11 5 11 10 0 6 -2 10 -4 10 -3 0
-8 -4 -11 -10z"/>
</g>
</svg>
